<mxfile host="app.diagrams.net" agent="Mozilla/5.0 (Windows NT 10.0; Win64; x64) AppleWebKit/537.36 (KHTML, like Gecko) Chrome/134.0.0.0 Safari/537.36" version="26.2.2">
  <diagram id="R2lEEEUBdFMjLlhIrx00" name="Page-1">
    <mxGraphModel dx="2406" dy="564" grid="1" gridSize="1" guides="1" tooltips="1" connect="1" arrows="1" fold="1" page="1" pageScale="1" pageWidth="850" pageHeight="1100" background="none" math="0" shadow="1" extFonts="Permanent Marker^https://fonts.googleapis.com/css?family=Permanent+Marker">
      <root>
        <mxCell id="0" />
        <mxCell id="1" parent="0" />
        <mxCell id="fAinJ7EqNKPUC8mV0AGh-1" value="Libro" style="rounded=0;whiteSpace=wrap;html=1;" vertex="1" parent="1">
          <mxGeometry x="94" y="389.5" width="65" height="30" as="geometry" />
        </mxCell>
        <mxCell id="fAinJ7EqNKPUC8mV0AGh-2" value="" style="endArrow=none;html=1;rounded=0;entryX=0.701;entryY=1.046;entryDx=0;entryDy=0;entryPerimeter=0;exitX=0.25;exitY=0;exitDx=0;exitDy=0;" edge="1" parent="1" source="fAinJ7EqNKPUC8mV0AGh-1" target="fAinJ7EqNKPUC8mV0AGh-6">
          <mxGeometry width="50" height="50" relative="1" as="geometry">
            <mxPoint x="128" y="445" as="sourcePoint" />
            <mxPoint x="111" y="392" as="targetPoint" />
          </mxGeometry>
        </mxCell>
        <mxCell id="fAinJ7EqNKPUC8mV0AGh-3" value="" style="endArrow=none;html=1;rounded=0;entryX=0.5;entryY=1;entryDx=0;entryDy=0;exitX=0.5;exitY=0;exitDx=0;exitDy=0;" edge="1" parent="1" source="fAinJ7EqNKPUC8mV0AGh-1" target="fAinJ7EqNKPUC8mV0AGh-5">
          <mxGeometry width="50" height="50" relative="1" as="geometry">
            <mxPoint x="148" y="444.67" as="sourcePoint" />
            <mxPoint x="148" y="374" as="targetPoint" />
          </mxGeometry>
        </mxCell>
        <mxCell id="fAinJ7EqNKPUC8mV0AGh-4" value="" style="endArrow=none;html=1;rounded=0;entryX=0.271;entryY=0.872;entryDx=0;entryDy=0;entryPerimeter=0;exitX=0.75;exitY=0;exitDx=0;exitDy=0;" edge="1" parent="1" source="fAinJ7EqNKPUC8mV0AGh-1" target="fAinJ7EqNKPUC8mV0AGh-12">
          <mxGeometry width="50" height="50" relative="1" as="geometry">
            <mxPoint x="166" y="445" as="sourcePoint" />
            <mxPoint x="182" y="394" as="targetPoint" />
          </mxGeometry>
        </mxCell>
        <mxCell id="fAinJ7EqNKPUC8mV0AGh-5" value="ID_Libro" style="ellipse;whiteSpace=wrap;html=1;" vertex="1" parent="1">
          <mxGeometry x="51" y="261" width="53" height="37" as="geometry" />
        </mxCell>
        <mxCell id="fAinJ7EqNKPUC8mV0AGh-6" value="Título" style="ellipse;whiteSpace=wrap;html=1;" vertex="1" parent="1">
          <mxGeometry x="8" y="299" width="49" height="29" as="geometry" />
        </mxCell>
        <mxCell id="fAinJ7EqNKPUC8mV0AGh-7" value="Autor" style="rounded=0;whiteSpace=wrap;html=1;" vertex="1" parent="1">
          <mxGeometry x="376" y="388" width="49" height="32" as="geometry" />
        </mxCell>
        <mxCell id="fAinJ7EqNKPUC8mV0AGh-8" value="Préstamo" style="rounded=0;whiteSpace=wrap;html=1;" vertex="1" parent="1">
          <mxGeometry x="86" y="640" width="81" height="36" as="geometry" />
        </mxCell>
        <mxCell id="fAinJ7EqNKPUC8mV0AGh-9" value="Socio" style="rounded=0;whiteSpace=wrap;html=1;" vertex="1" parent="1">
          <mxGeometry x="403" y="641.5" width="60" height="33" as="geometry" />
        </mxCell>
        <mxCell id="fAinJ7EqNKPUC8mV0AGh-10" value="Editorial" style="rounded=0;whiteSpace=wrap;html=1;" vertex="1" parent="1">
          <mxGeometry x="416" y="513.5" width="71" height="35" as="geometry" />
        </mxCell>
        <mxCell id="fAinJ7EqNKPUC8mV0AGh-11" value="Año de publicación" style="ellipse;whiteSpace=wrap;html=1;" vertex="1" parent="1">
          <mxGeometry x="-21" y="363" width="75" height="52" as="geometry" />
        </mxCell>
        <mxCell id="fAinJ7EqNKPUC8mV0AGh-12" value="ID_Editorial" style="ellipse;whiteSpace=wrap;html=1;" vertex="1" parent="1">
          <mxGeometry x="108" y="248" width="75" height="39" as="geometry" />
        </mxCell>
        <mxCell id="fAinJ7EqNKPUC8mV0AGh-13" value="ISBN" style="ellipse;whiteSpace=wrap;html=1;" vertex="1" parent="1">
          <mxGeometry x="196" y="253" width="47" height="32" as="geometry" />
        </mxCell>
        <mxCell id="fAinJ7EqNKPUC8mV0AGh-14" value="" style="endArrow=none;html=1;rounded=0;entryX=0;entryY=0.25;entryDx=0;entryDy=0;exitX=1;exitY=0.5;exitDx=0;exitDy=0;" edge="1" parent="1" source="fAinJ7EqNKPUC8mV0AGh-11" target="fAinJ7EqNKPUC8mV0AGh-1">
          <mxGeometry width="50" height="50" relative="1" as="geometry">
            <mxPoint x="63" y="527" as="sourcePoint" />
            <mxPoint x="113" y="477" as="targetPoint" />
          </mxGeometry>
        </mxCell>
        <mxCell id="fAinJ7EqNKPUC8mV0AGh-15" value="" style="endArrow=none;html=1;rounded=0;exitX=0;exitY=1;exitDx=0;exitDy=0;entryX=1;entryY=0;entryDx=0;entryDy=0;" edge="1" parent="1" source="fAinJ7EqNKPUC8mV0AGh-13" target="fAinJ7EqNKPUC8mV0AGh-1">
          <mxGeometry width="50" height="50" relative="1" as="geometry">
            <mxPoint x="175" y="545" as="sourcePoint" />
            <mxPoint x="151" y="387" as="targetPoint" />
          </mxGeometry>
        </mxCell>
        <mxCell id="fAinJ7EqNKPUC8mV0AGh-16" value="Nombre" style="ellipse;whiteSpace=wrap;html=1;" vertex="1" parent="1">
          <mxGeometry x="501" y="386" width="63" height="46" as="geometry" />
        </mxCell>
        <mxCell id="fAinJ7EqNKPUC8mV0AGh-17" value="ID_Autor" style="ellipse;whiteSpace=wrap;html=1;" vertex="1" parent="1">
          <mxGeometry x="427" y="436" width="74" height="49" as="geometry" />
        </mxCell>
        <mxCell id="fAinJ7EqNKPUC8mV0AGh-18" value="Apellido" style="ellipse;whiteSpace=wrap;html=1;" vertex="1" parent="1">
          <mxGeometry x="448" y="322" width="63" height="50" as="geometry" />
        </mxCell>
        <mxCell id="fAinJ7EqNKPUC8mV0AGh-19" value="ID_Préstamo" style="ellipse;whiteSpace=wrap;html=1;" vertex="1" parent="1">
          <mxGeometry x="201" y="722" width="87" height="50" as="geometry" />
        </mxCell>
        <mxCell id="fAinJ7EqNKPUC8mV0AGh-20" value="ID_Libro" style="ellipse;whiteSpace=wrap;html=1;" vertex="1" parent="1">
          <mxGeometry x="3" y="676" width="55" height="39" as="geometry" />
        </mxCell>
        <mxCell id="fAinJ7EqNKPUC8mV0AGh-21" value="ID_Socio" style="ellipse;whiteSpace=wrap;html=1;" vertex="1" parent="1">
          <mxGeometry x="120" y="737" width="76" height="38" as="geometry" />
        </mxCell>
        <mxCell id="fAinJ7EqNKPUC8mV0AGh-22" value="Fecha de préstamo" style="ellipse;whiteSpace=wrap;html=1;" vertex="1" parent="1">
          <mxGeometry x="-13" y="610" width="69" height="42" as="geometry" />
        </mxCell>
        <mxCell id="fAinJ7EqNKPUC8mV0AGh-23" value="Fecha de devolución" style="ellipse;whiteSpace=wrap;html=1;" vertex="1" parent="1">
          <mxGeometry x="27" y="720" width="88" height="51" as="geometry" />
        </mxCell>
        <mxCell id="fAinJ7EqNKPUC8mV0AGh-24" value="Nombre" style="ellipse;whiteSpace=wrap;html=1;" vertex="1" parent="1">
          <mxGeometry x="550" y="509" width="75" height="44" as="geometry" />
        </mxCell>
        <mxCell id="fAinJ7EqNKPUC8mV0AGh-25" value="ID_Editorial" style="ellipse;whiteSpace=wrap;html=1;" vertex="1" parent="1">
          <mxGeometry x="508" y="576" width="80" height="40" as="geometry" />
        </mxCell>
        <mxCell id="fAinJ7EqNKPUC8mV0AGh-26" value="Email" style="ellipse;whiteSpace=wrap;html=1;" vertex="1" parent="1">
          <mxGeometry x="384" y="743" width="60" height="41" as="geometry" />
        </mxCell>
        <mxCell id="fAinJ7EqNKPUC8mV0AGh-27" value="Teléfono" style="ellipse;whiteSpace=wrap;html=1;" vertex="1" parent="1">
          <mxGeometry x="309" y="775" width="69" height="53" as="geometry" />
        </mxCell>
        <mxCell id="fAinJ7EqNKPUC8mV0AGh-28" value="Apellido" style="ellipse;whiteSpace=wrap;html=1;" vertex="1" parent="1">
          <mxGeometry x="431" y="777" width="71" height="44" as="geometry" />
        </mxCell>
        <mxCell id="fAinJ7EqNKPUC8mV0AGh-29" value="Nombre" style="ellipse;whiteSpace=wrap;html=1;" vertex="1" parent="1">
          <mxGeometry x="511" y="793" width="66" height="41" as="geometry" />
        </mxCell>
        <mxCell id="fAinJ7EqNKPUC8mV0AGh-30" value="ID_Socio" style="ellipse;whiteSpace=wrap;html=1;" vertex="1" parent="1">
          <mxGeometry x="531" y="739" width="69" height="47" as="geometry" />
        </mxCell>
        <mxCell id="fAinJ7EqNKPUC8mV0AGh-35" value="Tiene" style="rhombus;whiteSpace=wrap;html=1;" vertex="1" parent="1">
          <mxGeometry x="230" y="368.5" width="73" height="71" as="geometry" />
        </mxCell>
        <mxCell id="fAinJ7EqNKPUC8mV0AGh-40" value="" style="endArrow=none;html=1;rounded=0;exitX=1;exitY=0.5;exitDx=0;exitDy=0;entryX=0;entryY=0.5;entryDx=0;entryDy=0;" edge="1" parent="1" source="fAinJ7EqNKPUC8mV0AGh-1" target="fAinJ7EqNKPUC8mV0AGh-35">
          <mxGeometry width="50" height="50" relative="1" as="geometry">
            <mxPoint x="158" y="405" as="sourcePoint" />
            <mxPoint x="202" y="417" as="targetPoint" />
          </mxGeometry>
        </mxCell>
        <mxCell id="fAinJ7EqNKPUC8mV0AGh-42" value="" style="endArrow=none;html=1;rounded=0;exitX=1;exitY=0.5;exitDx=0;exitDy=0;entryX=0;entryY=0.5;entryDx=0;entryDy=0;" edge="1" parent="1" source="fAinJ7EqNKPUC8mV0AGh-35" target="fAinJ7EqNKPUC8mV0AGh-7">
          <mxGeometry width="50" height="50" relative="1" as="geometry">
            <mxPoint x="312" y="355" as="sourcePoint" />
            <mxPoint x="329" y="423" as="targetPoint" />
          </mxGeometry>
        </mxCell>
        <mxCell id="fAinJ7EqNKPUC8mV0AGh-47" value="M" style="text;html=1;align=center;verticalAlign=middle;whiteSpace=wrap;rounded=0;" vertex="1" parent="1">
          <mxGeometry x="343" y="387.5" width="43" height="17" as="geometry" />
        </mxCell>
        <mxCell id="fAinJ7EqNKPUC8mV0AGh-48" value="N" style="text;html=1;align=center;verticalAlign=middle;whiteSpace=wrap;rounded=0;" vertex="1" parent="1">
          <mxGeometry x="162" y="388" width="29" height="16" as="geometry" />
        </mxCell>
        <mxCell id="fAinJ7EqNKPUC8mV0AGh-53" value="" style="endArrow=none;html=1;rounded=0;exitX=0;exitY=1;exitDx=0;exitDy=0;entryX=1;entryY=0.5;entryDx=0;entryDy=0;" edge="1" parent="1" source="fAinJ7EqNKPUC8mV0AGh-18" target="fAinJ7EqNKPUC8mV0AGh-7">
          <mxGeometry width="50" height="50" relative="1" as="geometry">
            <mxPoint x="380" y="454" as="sourcePoint" />
            <mxPoint x="430" y="404" as="targetPoint" />
          </mxGeometry>
        </mxCell>
        <mxCell id="fAinJ7EqNKPUC8mV0AGh-54" value="" style="endArrow=none;html=1;rounded=0;entryX=0;entryY=0;entryDx=0;entryDy=0;exitX=0.5;exitY=1;exitDx=0;exitDy=0;" edge="1" parent="1" source="fAinJ7EqNKPUC8mV0AGh-7" target="fAinJ7EqNKPUC8mV0AGh-17">
          <mxGeometry width="50" height="50" relative="1" as="geometry">
            <mxPoint x="380" y="454" as="sourcePoint" />
            <mxPoint x="430" y="404" as="targetPoint" />
          </mxGeometry>
        </mxCell>
        <mxCell id="fAinJ7EqNKPUC8mV0AGh-55" value="" style="endArrow=none;html=1;rounded=0;entryX=0;entryY=0.5;entryDx=0;entryDy=0;exitX=1;exitY=0.75;exitDx=0;exitDy=0;" edge="1" parent="1" source="fAinJ7EqNKPUC8mV0AGh-7" target="fAinJ7EqNKPUC8mV0AGh-16">
          <mxGeometry width="50" height="50" relative="1" as="geometry">
            <mxPoint x="429" y="443" as="sourcePoint" />
            <mxPoint x="479" y="393" as="targetPoint" />
          </mxGeometry>
        </mxCell>
        <mxCell id="fAinJ7EqNKPUC8mV0AGh-56" value="" style="endArrow=none;html=1;rounded=0;exitX=0.75;exitY=1;exitDx=0;exitDy=0;" edge="1" parent="1" source="fAinJ7EqNKPUC8mV0AGh-9" target="fAinJ7EqNKPUC8mV0AGh-30">
          <mxGeometry width="50" height="50" relative="1" as="geometry">
            <mxPoint x="393" y="234" as="sourcePoint" />
            <mxPoint x="443" y="184" as="targetPoint" />
          </mxGeometry>
        </mxCell>
        <mxCell id="fAinJ7EqNKPUC8mV0AGh-57" value="" style="endArrow=none;html=1;rounded=0;exitX=0.5;exitY=1;exitDx=0;exitDy=0;entryX=0.5;entryY=0;entryDx=0;entryDy=0;" edge="1" parent="1" source="fAinJ7EqNKPUC8mV0AGh-9" target="fAinJ7EqNKPUC8mV0AGh-28">
          <mxGeometry width="50" height="50" relative="1" as="geometry">
            <mxPoint x="487" y="291" as="sourcePoint" />
            <mxPoint x="499" y="767" as="targetPoint" />
          </mxGeometry>
        </mxCell>
        <mxCell id="fAinJ7EqNKPUC8mV0AGh-58" value="" style="endArrow=none;html=1;rounded=0;exitX=0.25;exitY=1;exitDx=0;exitDy=0;entryX=0.5;entryY=0;entryDx=0;entryDy=0;" edge="1" parent="1" source="fAinJ7EqNKPUC8mV0AGh-9" target="fAinJ7EqNKPUC8mV0AGh-26">
          <mxGeometry width="50" height="50" relative="1" as="geometry">
            <mxPoint x="261" y="266" as="sourcePoint" />
            <mxPoint x="422" y="757" as="targetPoint" />
          </mxGeometry>
        </mxCell>
        <mxCell id="fAinJ7EqNKPUC8mV0AGh-59" value="" style="endArrow=none;html=1;rounded=0;entryX=0.5;entryY=0;entryDx=0;entryDy=0;" edge="1" parent="1" target="fAinJ7EqNKPUC8mV0AGh-27">
          <mxGeometry width="50" height="50" relative="1" as="geometry">
            <mxPoint x="409" y="676" as="sourcePoint" />
            <mxPoint x="339" y="761" as="targetPoint" />
          </mxGeometry>
        </mxCell>
        <mxCell id="fAinJ7EqNKPUC8mV0AGh-60" value="" style="endArrow=none;html=1;rounded=0;entryX=0.364;entryY=-0.003;entryDx=0;entryDy=0;exitX=0.75;exitY=1;exitDx=0;exitDy=0;entryPerimeter=0;" edge="1" parent="1" source="fAinJ7EqNKPUC8mV0AGh-9" target="fAinJ7EqNKPUC8mV0AGh-29">
          <mxGeometry width="50" height="50" relative="1" as="geometry">
            <mxPoint x="367" y="311" as="sourcePoint" />
            <mxPoint x="417" y="261" as="targetPoint" />
          </mxGeometry>
        </mxCell>
        <mxCell id="fAinJ7EqNKPUC8mV0AGh-61" value="" style="endArrow=none;html=1;rounded=0;exitX=1;exitY=0.5;exitDx=0;exitDy=0;" edge="1" parent="1" source="fAinJ7EqNKPUC8mV0AGh-10" target="fAinJ7EqNKPUC8mV0AGh-25">
          <mxGeometry width="50" height="50" relative="1" as="geometry">
            <mxPoint x="526" y="556" as="sourcePoint" />
            <mxPoint x="778" y="549" as="targetPoint" />
          </mxGeometry>
        </mxCell>
        <mxCell id="fAinJ7EqNKPUC8mV0AGh-62" value="" style="endArrow=none;html=1;rounded=0;entryX=0;entryY=0.5;entryDx=0;entryDy=0;exitX=1;exitY=0.5;exitDx=0;exitDy=0;" edge="1" parent="1" source="fAinJ7EqNKPUC8mV0AGh-10" target="fAinJ7EqNKPUC8mV0AGh-24">
          <mxGeometry width="50" height="50" relative="1" as="geometry">
            <mxPoint x="570" y="590" as="sourcePoint" />
            <mxPoint x="620" y="540" as="targetPoint" />
          </mxGeometry>
        </mxCell>
        <mxCell id="fAinJ7EqNKPUC8mV0AGh-63" value="" style="endArrow=none;html=1;rounded=0;exitX=0.75;exitY=1;exitDx=0;exitDy=0;" edge="1" parent="1" source="fAinJ7EqNKPUC8mV0AGh-8" target="fAinJ7EqNKPUC8mV0AGh-19">
          <mxGeometry width="50" height="50" relative="1" as="geometry">
            <mxPoint x="505" y="609" as="sourcePoint" />
            <mxPoint x="555" y="559" as="targetPoint" />
          </mxGeometry>
        </mxCell>
        <mxCell id="fAinJ7EqNKPUC8mV0AGh-64" value="" style="endArrow=none;html=1;rounded=0;entryX=0.3;entryY=0.05;entryDx=0;entryDy=0;entryPerimeter=0;exitX=0.5;exitY=1;exitDx=0;exitDy=0;" edge="1" parent="1" source="fAinJ7EqNKPUC8mV0AGh-8" target="fAinJ7EqNKPUC8mV0AGh-21">
          <mxGeometry width="50" height="50" relative="1" as="geometry">
            <mxPoint x="184" y="592" as="sourcePoint" />
            <mxPoint x="234" y="542" as="targetPoint" />
          </mxGeometry>
        </mxCell>
        <mxCell id="fAinJ7EqNKPUC8mV0AGh-65" value="" style="endArrow=none;html=1;rounded=0;entryX=0.5;entryY=0;entryDx=0;entryDy=0;exitX=0.25;exitY=1;exitDx=0;exitDy=0;" edge="1" parent="1" source="fAinJ7EqNKPUC8mV0AGh-8" target="fAinJ7EqNKPUC8mV0AGh-23">
          <mxGeometry width="50" height="50" relative="1" as="geometry">
            <mxPoint x="298" y="559" as="sourcePoint" />
            <mxPoint x="348" y="509" as="targetPoint" />
          </mxGeometry>
        </mxCell>
        <mxCell id="fAinJ7EqNKPUC8mV0AGh-66" value="" style="endArrow=none;html=1;rounded=0;exitX=0;exitY=0.5;exitDx=0;exitDy=0;entryX=1;entryY=0.5;entryDx=0;entryDy=0;" edge="1" parent="1" source="fAinJ7EqNKPUC8mV0AGh-8" target="fAinJ7EqNKPUC8mV0AGh-22">
          <mxGeometry width="50" height="50" relative="1" as="geometry">
            <mxPoint x="327" y="571" as="sourcePoint" />
            <mxPoint x="377" y="521" as="targetPoint" />
          </mxGeometry>
        </mxCell>
        <mxCell id="fAinJ7EqNKPUC8mV0AGh-67" value="" style="endArrow=none;html=1;rounded=0;entryX=1;entryY=0;entryDx=0;entryDy=0;exitX=0;exitY=1;exitDx=0;exitDy=0;" edge="1" parent="1" source="fAinJ7EqNKPUC8mV0AGh-8" target="fAinJ7EqNKPUC8mV0AGh-20">
          <mxGeometry width="50" height="50" relative="1" as="geometry">
            <mxPoint x="251" y="562" as="sourcePoint" />
            <mxPoint x="301" y="512" as="targetPoint" />
          </mxGeometry>
        </mxCell>
        <mxCell id="fAinJ7EqNKPUC8mV0AGh-70" value="" style="endArrow=none;html=1;rounded=0;exitX=0.5;exitY=1;exitDx=0;exitDy=0;entryX=0.5;entryY=0;entryDx=0;entryDy=0;" edge="1" parent="1" source="fAinJ7EqNKPUC8mV0AGh-1" target="fAinJ7EqNKPUC8mV0AGh-71">
          <mxGeometry width="50" height="50" relative="1" as="geometry">
            <mxPoint x="192" y="436" as="sourcePoint" />
            <mxPoint x="432" y="537" as="targetPoint" />
          </mxGeometry>
        </mxCell>
        <mxCell id="fAinJ7EqNKPUC8mV0AGh-71" value="Asociado" style="rhombus;whiteSpace=wrap;html=1;" vertex="1" parent="1">
          <mxGeometry x="86.5" y="484" width="80" height="80" as="geometry" />
        </mxCell>
        <mxCell id="fAinJ7EqNKPUC8mV0AGh-72" value="N" style="text;html=1;align=center;verticalAlign=middle;whiteSpace=wrap;rounded=0;" vertex="1" parent="1">
          <mxGeometry x="128" y="464" width="29" height="16" as="geometry" />
        </mxCell>
        <mxCell id="fAinJ7EqNKPUC8mV0AGh-73" value="" style="endArrow=none;html=1;rounded=0;entryX=0.5;entryY=1;entryDx=0;entryDy=0;exitX=0.5;exitY=0;exitDx=0;exitDy=0;" edge="1" parent="1" source="fAinJ7EqNKPUC8mV0AGh-8" target="fAinJ7EqNKPUC8mV0AGh-71">
          <mxGeometry width="50" height="50" relative="1" as="geometry">
            <mxPoint x="127" y="630" as="sourcePoint" />
            <mxPoint x="136.5" y="589" as="targetPoint" />
          </mxGeometry>
        </mxCell>
        <mxCell id="fAinJ7EqNKPUC8mV0AGh-74" value="1" style="text;html=1;align=center;verticalAlign=middle;whiteSpace=wrap;rounded=0;" vertex="1" parent="1">
          <mxGeometry x="121" y="615" width="43" height="17" as="geometry" />
        </mxCell>
        <mxCell id="fAinJ7EqNKPUC8mV0AGh-75" value="Hacer" style="rhombus;whiteSpace=wrap;html=1;" vertex="1" parent="1">
          <mxGeometry x="232" y="622.5" width="69" height="71" as="geometry" />
        </mxCell>
        <mxCell id="fAinJ7EqNKPUC8mV0AGh-76" value="" style="endArrow=none;html=1;rounded=0;exitX=1;exitY=0.5;exitDx=0;exitDy=0;entryX=0;entryY=0.5;entryDx=0;entryDy=0;" edge="1" parent="1" source="fAinJ7EqNKPUC8mV0AGh-75" target="fAinJ7EqNKPUC8mV0AGh-9">
          <mxGeometry width="50" height="50" relative="1" as="geometry">
            <mxPoint x="382" y="720" as="sourcePoint" />
            <mxPoint x="432" y="670" as="targetPoint" />
            <Array as="points" />
          </mxGeometry>
        </mxCell>
        <mxCell id="fAinJ7EqNKPUC8mV0AGh-77" value="" style="endArrow=none;html=1;rounded=0;entryX=0;entryY=0.5;entryDx=0;entryDy=0;exitX=1;exitY=0.5;exitDx=0;exitDy=0;" edge="1" parent="1" source="fAinJ7EqNKPUC8mV0AGh-8" target="fAinJ7EqNKPUC8mV0AGh-75">
          <mxGeometry width="50" height="50" relative="1" as="geometry">
            <mxPoint x="178" y="674" as="sourcePoint" />
            <mxPoint x="228" y="624" as="targetPoint" />
          </mxGeometry>
        </mxCell>
        <mxCell id="fAinJ7EqNKPUC8mV0AGh-79" value="1" style="text;html=1;align=center;verticalAlign=middle;whiteSpace=wrap;rounded=0;" vertex="1" parent="1">
          <mxGeometry x="360" y="639" width="43" height="17" as="geometry" />
        </mxCell>
        <mxCell id="fAinJ7EqNKPUC8mV0AGh-80" value="N" style="text;html=1;align=center;verticalAlign=middle;whiteSpace=wrap;rounded=0;" vertex="1" parent="1">
          <mxGeometry x="168" y="639" width="29" height="16" as="geometry" />
        </mxCell>
        <mxCell id="fAinJ7EqNKPUC8mV0AGh-81" value="" style="endArrow=none;html=1;rounded=0;entryX=1;entryY=1;entryDx=0;entryDy=0;exitX=0;exitY=0;exitDx=0;exitDy=0;" edge="1" parent="1" source="fAinJ7EqNKPUC8mV0AGh-83" target="fAinJ7EqNKPUC8mV0AGh-1">
          <mxGeometry width="50" height="50" relative="1" as="geometry">
            <mxPoint x="382" y="587" as="sourcePoint" />
            <mxPoint x="432" y="537" as="targetPoint" />
          </mxGeometry>
        </mxCell>
        <mxCell id="fAinJ7EqNKPUC8mV0AGh-82" value="" style="endArrow=none;html=1;rounded=0;exitX=1;exitY=0.5;exitDx=0;exitDy=0;entryX=0;entryY=0.5;entryDx=0;entryDy=0;" edge="1" parent="1" source="fAinJ7EqNKPUC8mV0AGh-83" target="fAinJ7EqNKPUC8mV0AGh-10">
          <mxGeometry width="50" height="50" relative="1" as="geometry">
            <mxPoint x="462" y="574" as="sourcePoint" />
            <mxPoint x="424" y="531" as="targetPoint" />
          </mxGeometry>
        </mxCell>
        <mxCell id="fAinJ7EqNKPUC8mV0AGh-83" value="Tiene" style="rhombus;whiteSpace=wrap;html=1;" vertex="1" parent="1">
          <mxGeometry x="232" y="491" width="80" height="80" as="geometry" />
        </mxCell>
        <mxCell id="fAinJ7EqNKPUC8mV0AGh-84" value="1" style="text;html=1;align=center;verticalAlign=middle;whiteSpace=wrap;rounded=0;" vertex="1" parent="1">
          <mxGeometry x="372" y="513" width="43" height="17" as="geometry" />
        </mxCell>
        <mxCell id="fAinJ7EqNKPUC8mV0AGh-85" value="N" style="text;html=1;align=center;verticalAlign=middle;whiteSpace=wrap;rounded=0;" vertex="1" parent="1">
          <mxGeometry x="173" y="421" width="29" height="16" as="geometry" />
        </mxCell>
      </root>
    </mxGraphModel>
  </diagram>
</mxfile>
